<svg xmlns="http://www.w3.org/2000/svg" viewBox="0 0 100 100" preserveAspectRatio="xMidYMid" width="200" height="200" style="shape-rendering: auto; display: block; background: transparent;" xmlns:xlink="http://www.w3.org/1999/xlink"><g><g transform="rotate(0 50 50)">
  <rect fill="#d8d8d8" height="12" width="6" ry="6" rx="3" y="33" x="47">
    <animate repeatCount="indefinite" begin="-0.34860557768924305s" dur="0.39840637450199207s" keyTimes="0;1" values="1;0" attributeName="opacity"></animate>
  </rect>
</g><g transform="rotate(45 50 50)">
  <rect fill="#d8d8d8" height="12" width="6" ry="6" rx="3" y="33" x="47">
    <animate repeatCount="indefinite" begin="-0.29880478087649404s" dur="0.39840637450199207s" keyTimes="0;1" values="1;0" attributeName="opacity"></animate>
  </rect>
</g><g transform="rotate(90 50 50)">
  <rect fill="#d8d8d8" height="12" width="6" ry="6" rx="3" y="33" x="47">
    <animate repeatCount="indefinite" begin="-0.24900398406374505s" dur="0.39840637450199207s" keyTimes="0;1" values="1;0" attributeName="opacity"></animate>
  </rect>
</g><g transform="rotate(135 50 50)">
  <rect fill="#d8d8d8" height="12" width="6" ry="6" rx="3" y="33" x="47">
    <animate repeatCount="indefinite" begin="-0.19920318725099603s" dur="0.39840637450199207s" keyTimes="0;1" values="1;0" attributeName="opacity"></animate>
  </rect>
</g><g transform="rotate(180 50 50)">
  <rect fill="#d8d8d8" height="12" width="6" ry="6" rx="3" y="33" x="47">
    <animate repeatCount="indefinite" begin="-0.14940239043824702s" dur="0.39840637450199207s" keyTimes="0;1" values="1;0" attributeName="opacity"></animate>
  </rect>
</g><g transform="rotate(225 50 50)">
  <rect fill="#d8d8d8" height="12" width="6" ry="6" rx="3" y="33" x="47">
    <animate repeatCount="indefinite" begin="-0.09960159362549802s" dur="0.39840637450199207s" keyTimes="0;1" values="1;0" attributeName="opacity"></animate>
  </rect>
</g><g transform="rotate(270 50 50)">
  <rect fill="#d8d8d8" height="12" width="6" ry="6" rx="3" y="33" x="47">
    <animate repeatCount="indefinite" begin="-0.04980079681274901s" dur="0.39840637450199207s" keyTimes="0;1" values="1;0" attributeName="opacity"></animate>
  </rect>
</g><g transform="rotate(315 50 50)">
  <rect fill="#d8d8d8" height="12" width="6" ry="6" rx="3" y="33" x="47">
    <animate repeatCount="indefinite" begin="0s" dur="0.39840637450199207s" keyTimes="0;1" values="1;0" attributeName="opacity"></animate>
  </rect>
</g><g></g></g><!-- [ldio] generated by https://loading.io --></svg>